<?xml version="1.0" standalone="no"?>
<!DOCTYPE svg PUBLIC "-//W3C//DTD SVG 20010904//EN"
 "http://www.w3.org/TR/2001/REC-SVG-20010904/DTD/svg10.dtd">
<svg version="1.0" xmlns="http://www.w3.org/2000/svg"
 width="186.000000pt" height="142.000000pt" viewBox="0 0 186.000000 142.000000"
 preserveAspectRatio="xMidYMid meet">
<metadata>
Created by potrace 1.16, written by Peter Selinger 2001-2019
</metadata>
<g transform="translate(0.000000,142.000000) scale(0.100000,-0.100000)"
fill="#000000" stroke="none">
<path d="M840 1368 c-61 -17 -110 -78 -110 -136 0 -28 -3 -30 -49 -36 -60 -8
-97 -36 -111 -84 -7 -23 -10 -108 -8 -224 4 -272 -2 -267 326 -267 226 -1 257
4 297 49 19 21 20 36 20 242 l0 220 -32 28 c-23 20 -48 31 -83 36 -47 6 -50 8
-50 36 0 60 -49 119 -115 137 -22 6 -42 11 -45 10 -3 0 -21 -5 -40 -11z m100
-53 c35 -18 50 -43 50 -84 l0 -31 -105 0 -105 0 0 31 c0 40 14 65 48 83 35 20
76 20 112 1z m-210 -219 c0 -37 4 -56 14 -59 23 -9 36 15 36 65 l0 48 105 0
105 0 0 -48 c0 -50 13 -74 36 -65 10 3 14 22 14 59 l0 54 39 0 c23 0 48 -8 62
-19 24 -19 24 -21 24 -221 0 -200 0 -202 -24 -221 -21 -17 -42 -19 -257 -19
-221 0 -235 1 -254 20 -19 19 -20 33 -20 220 0 187 1 201 20 220 13 13 33 20
60 20 l40 0 0 -54z"/>
</g>
</svg>
